<mxfile host="app.diagrams.net" modified="2020-12-28T22:21:39.340Z" agent="5.0 (X11)" etag="1X2AZG_ekGYdJqPWSI6G" version="14.1.3" type="github" pages="3">
  <diagram id="dey2-_UVM89Uw2qqdMOH" name="Hardware">
    <mxGraphModel dx="1886" dy="874" grid="1" gridSize="10" guides="1" tooltips="1" connect="1" arrows="1" fold="1" page="1" pageScale="1" pageWidth="827" pageHeight="1169" math="0" shadow="0" extFonts="Roboto^https://fonts.googleapis.com/css?family=Roboto">
      <root>
        <mxCell id="Rhs4_uoNjugDsGz7mm6r-0" />
        <mxCell id="Rhs4_uoNjugDsGz7mm6r-1" parent="Rhs4_uoNjugDsGz7mm6r-0" />
        <mxCell id="Rhs4_uoNjugDsGz7mm6r-2" value="" style="pointerEvents=1;shadow=0;dashed=0;html=1;strokeColor=none;fillColor=#505050;labelPosition=center;verticalLabelPosition=bottom;verticalAlign=top;outlineConnect=0;align=center;shape=mxgraph.office.concepts.globe_internet;labelBackgroundColor=#ffffff;fontFamily=Garamond;fontSize=22;fontColor=#000000;opacity=90;" parent="Rhs4_uoNjugDsGz7mm6r-1" vertex="1">
          <mxGeometry x="324.87" width="84.43" height="90" as="geometry" />
        </mxCell>
        <mxCell id="Rhs4_uoNjugDsGz7mm6r-8" style="edgeStyle=orthogonalEdgeStyle;curved=1;rounded=0;orthogonalLoop=1;jettySize=auto;html=1;dashed=1;endArrow=none;endFill=0;fontFamily=Garamond;fontSize=22;fontColor=#000000;" parent="Rhs4_uoNjugDsGz7mm6r-1" source="Rhs4_uoNjugDsGz7mm6r-3" target="Rhs4_uoNjugDsGz7mm6r-6" edge="1">
          <mxGeometry relative="1" as="geometry" />
        </mxCell>
        <mxCell id="Rhs4_uoNjugDsGz7mm6r-9" style="edgeStyle=orthogonalEdgeStyle;curved=1;rounded=0;orthogonalLoop=1;jettySize=auto;html=1;dashed=1;endArrow=none;endFill=0;fontFamily=Garamond;fontSize=22;fontColor=#000000;" parent="Rhs4_uoNjugDsGz7mm6r-1" source="Rhs4_uoNjugDsGz7mm6r-3" target="Rhs4_uoNjugDsGz7mm6r-5" edge="1">
          <mxGeometry relative="1" as="geometry" />
        </mxCell>
        <mxCell id="-3U2eYCUA2ew7fMF2zdF-1" style="edgeStyle=orthogonalEdgeStyle;curved=1;rounded=0;orthogonalLoop=1;jettySize=auto;html=1;dashed=1;endArrow=none;endFill=0;fontFamily=Garamond;fontSize=22;fontColor=#000000;" parent="Rhs4_uoNjugDsGz7mm6r-1" source="Rhs4_uoNjugDsGz7mm6r-3" target="-3U2eYCUA2ew7fMF2zdF-0" edge="1">
          <mxGeometry relative="1" as="geometry" />
        </mxCell>
        <mxCell id="a15XGu0W07Xabe7JATBi-0" value=":80" style="edgeLabel;html=1;align=center;verticalAlign=middle;resizable=0;points=[];fontSize=23;fontFamily=Roboto;fontColor=#000000;" parent="-3U2eYCUA2ew7fMF2zdF-1" vertex="1" connectable="0">
          <mxGeometry x="-0.6391" y="11" relative="1" as="geometry">
            <mxPoint x="-0.27" y="5" as="offset" />
          </mxGeometry>
        </mxCell>
        <mxCell id="muKkKXc7AgJIAD11_s4G-2" style="edgeStyle=orthogonalEdgeStyle;curved=1;rounded=0;orthogonalLoop=1;jettySize=auto;html=1;dashed=1;endArrow=none;endFill=0;fontFamily=Roboto;fontSize=13;fontColor=#000000;" parent="Rhs4_uoNjugDsGz7mm6r-1" source="Rhs4_uoNjugDsGz7mm6r-3" target="muKkKXc7AgJIAD11_s4G-0" edge="1">
          <mxGeometry relative="1" as="geometry" />
        </mxCell>
        <mxCell id="Rhs4_uoNjugDsGz7mm6r-3" value="&lt;div style=&quot;font-size: 19px;&quot;&gt;&lt;font style=&quot;font-size: 19px;&quot;&gt;Raspberry Pi 4b &lt;br style=&quot;font-size: 19px;&quot;&gt;&lt;/font&gt;&lt;/div&gt;&lt;div style=&quot;font-size: 19px;&quot;&gt;&lt;font style=&quot;font-size: 19px;&quot;&gt;(32Go - 4Go)&lt;/font&gt;&lt;/div&gt;" style="verticalLabelPosition=bottom;html=1;verticalAlign=top;strokeWidth=1;align=center;outlineConnect=0;dashed=0;outlineConnect=0;shape=mxgraph.aws3d.ebs2;fillColor=#ECECEC;strokeColor=#5E5E5E;aspect=fixed;shadow=1;labelBackgroundColor=#ffffff;fontFamily=Roboto;fontSize=19;fontColor=#000000;opacity=90;fontStyle=1" parent="Rhs4_uoNjugDsGz7mm6r-1" vertex="1">
          <mxGeometry x="390" y="430" width="153.34" height="100" as="geometry" />
        </mxCell>
        <mxCell id="Rhs4_uoNjugDsGz7mm6r-5" value="&lt;div style=&quot;font-size: 13px;&quot;&gt;Storage Nextcloud&lt;/div&gt;&lt;div style=&quot;font-size: 13px;&quot;&gt;500Go&lt;br style=&quot;font-size: 13px;&quot;&gt;&lt;/div&gt;" style="verticalLabelPosition=bottom;html=1;verticalAlign=top;strokeWidth=1;align=center;outlineConnect=0;dashed=0;outlineConnect=0;shape=mxgraph.aws3d.application;fillColor=#4286c5;strokeColor=#57A2D8;aspect=fixed;shadow=1;labelBackgroundColor=#ffffff;fontFamily=Roboto;fontSize=13;fontColor=#000000;opacity=90;fontStyle=1" parent="Rhs4_uoNjugDsGz7mm6r-1" vertex="1">
          <mxGeometry x="150" y="570" width="62" height="68.8" as="geometry" />
        </mxCell>
        <mxCell id="Rhs4_uoNjugDsGz7mm6r-6" value="&lt;div&gt;Storage multimÃ©dia &lt;br&gt;&lt;/div&gt;&lt;div&gt;2To&lt;/div&gt;" style="verticalLabelPosition=bottom;html=1;verticalAlign=top;strokeWidth=1;align=center;outlineConnect=0;dashed=0;outlineConnect=0;shape=mxgraph.aws3d.application;fillColor=#4286c5;strokeColor=#57A2D8;aspect=fixed;shadow=1;labelBackgroundColor=#ffffff;fontFamily=Roboto;fontSize=13;fontColor=#000000;opacity=90;fontStyle=1" parent="Rhs4_uoNjugDsGz7mm6r-1" vertex="1">
          <mxGeometry x="630" y="560" width="62" height="68.8" as="geometry" />
        </mxCell>
        <mxCell id="-3U2eYCUA2ew7fMF2zdF-2" style="edgeStyle=orthogonalEdgeStyle;curved=1;rounded=0;orthogonalLoop=1;jettySize=auto;html=1;dashed=1;endArrow=none;endFill=0;fontFamily=Garamond;fontSize=22;fontColor=#000000;" parent="Rhs4_uoNjugDsGz7mm6r-1" source="-3U2eYCUA2ew7fMF2zdF-0" edge="1">
          <mxGeometry relative="1" as="geometry">
            <mxPoint x="367.0799999999999" y="100" as="targetPoint" />
          </mxGeometry>
        </mxCell>
        <mxCell id="-3U2eYCUA2ew7fMF2zdF-0" value="" style="verticalLabelPosition=bottom;html=1;verticalAlign=top;strokeWidth=1;align=center;outlineConnect=0;dashed=0;outlineConnect=0;shape=mxgraph.aws3d.internetGateway;fillColor=#ECECEC;strokeColor=#5E5E5E;aspect=fixed;shadow=1;labelBackgroundColor=#ffffff;fontFamily=Garamond;fontSize=22;fontColor=#000000;opacity=90;" parent="Rhs4_uoNjugDsGz7mm6r-1" vertex="1">
          <mxGeometry x="278.73" y="180" width="176.7" height="155.65" as="geometry" />
        </mxCell>
        <mxCell id="1lJmdTvQkXoUhlLH_btx-0" value="&lt;font style=&quot;font-size: 21px&quot;&gt;&lt;b&gt;Box internet&lt;br&gt;&lt;/b&gt;&lt;/font&gt;" style="text;html=1;strokeColor=none;fillColor=none;align=center;verticalAlign=middle;whiteSpace=wrap;rounded=0;shadow=1;labelBackgroundColor=#ffffff;fontFamily=Roboto;fontSize=19;fontColor=#000000;opacity=90;" parent="Rhs4_uoNjugDsGz7mm6r-1" vertex="1">
          <mxGeometry x="390" y="315.65" width="120" height="20" as="geometry" />
        </mxCell>
        <mxCell id="muKkKXc7AgJIAD11_s4G-0" value="&lt;div style=&quot;font-size: 13px&quot;&gt;Backup Nextcloud&lt;br&gt;&lt;/div&gt;&lt;div style=&quot;font-size: 13px&quot;&gt;500Go&lt;br style=&quot;font-size: 13px&quot;&gt;&lt;/div&gt;" style="verticalLabelPosition=bottom;html=1;verticalAlign=top;strokeWidth=1;align=center;outlineConnect=0;dashed=0;outlineConnect=0;shape=mxgraph.aws3d.application;fillColor=#4286c5;strokeColor=#57A2D8;aspect=fixed;shadow=1;labelBackgroundColor=#ffffff;fontFamily=Roboto;fontSize=13;fontColor=#000000;opacity=90;fontStyle=1" parent="Rhs4_uoNjugDsGz7mm6r-1" vertex="1">
          <mxGeometry x="278.73" y="570" width="62" height="68.8" as="geometry" />
        </mxCell>
      </root>
    </mxGraphModel>
  </diagram>
  <diagram id="S9LHNPRBm1qsJoPzYEcS" name="Software">
    <mxGraphModel dx="2713" dy="874" grid="1" gridSize="10" guides="1" tooltips="1" connect="1" arrows="1" fold="1" page="1" pageScale="1" pageWidth="827" pageHeight="1169" math="0" shadow="0" extFonts="Roboto^https://fonts.googleapis.com/css?family=Roboto">
      <root>
        <mxCell id="5jvU46u17jYDR4MZLt9F-0" />
        <mxCell id="5jvU46u17jYDR4MZLt9F-1" parent="5jvU46u17jYDR4MZLt9F-0" />
        <mxCell id="3_Wbqj_5gp6mR6WRHqKk-25" style="edgeStyle=orthogonalEdgeStyle;curved=1;rounded=0;orthogonalLoop=1;jettySize=auto;html=1;dashed=1;endArrow=none;endFill=0;fontFamily=Garamond;fontSize=22;fontColor=#000000;" parent="5jvU46u17jYDR4MZLt9F-1" source="bRjVQh3te2Wh9cIUkogD-8" edge="1">
          <mxGeometry relative="1" as="geometry">
            <mxPoint x="352.1700000000005" y="170" as="targetPoint" />
          </mxGeometry>
        </mxCell>
        <mxCell id="bRjVQh3te2Wh9cIUkogD-8" value="" style="verticalLabelPosition=bottom;html=1;verticalAlign=top;strokeWidth=1;align=center;outlineConnect=0;dashed=0;outlineConnect=0;shape=mxgraph.aws3d.worker;fillColor=#ECECEC;strokeColor=#5E5E5E;aspect=fixed;" parent="5jvU46u17jYDR4MZLt9F-1" vertex="1">
          <mxGeometry x="285.57" y="270" width="133.2" height="90" as="geometry" />
        </mxCell>
        <mxCell id="bRjVQh3te2Wh9cIUkogD-23" value="" style="verticalLabelPosition=bottom;html=1;verticalAlign=top;strokeWidth=1;align=center;outlineConnect=0;dashed=0;outlineConnect=0;shape=mxgraph.aws3d.spot;aspect=fixed;fillColor=#FFFFFF;" parent="5jvU46u17jYDR4MZLt9F-1" vertex="1">
          <mxGeometry x="-125.99999999999999" y="540" width="539.08" height="313.01" as="geometry" />
        </mxCell>
        <mxCell id="diWJd8AKhdj01ChAPHTm-2" style="edgeStyle=orthogonalEdgeStyle;curved=1;rounded=0;orthogonalLoop=1;jettySize=auto;html=1;endArrow=none;endFill=0;" parent="5jvU46u17jYDR4MZLt9F-1" source="bRjVQh3te2Wh9cIUkogD-4" target="bRjVQh3te2Wh9cIUkogD-14" edge="1">
          <mxGeometry relative="1" as="geometry" />
        </mxCell>
        <mxCell id="diWJd8AKhdj01ChAPHTm-9" style="edgeStyle=orthogonalEdgeStyle;curved=1;rounded=0;orthogonalLoop=1;jettySize=auto;html=1;endArrow=none;endFill=0;fontFamily=Roboto;fontSize=24;fontColor=#FFFFFF;dashed=1;" parent="5jvU46u17jYDR4MZLt9F-1" source="bRjVQh3te2Wh9cIUkogD-4" target="bRjVQh3te2Wh9cIUkogD-8" edge="1">
          <mxGeometry relative="1" as="geometry" />
        </mxCell>
        <mxCell id="bRjVQh3te2Wh9cIUkogD-4" value="&lt;div&gt;Plex Server&lt;/div&gt;&lt;div&gt;plex.chinour.fr&lt;br&gt;&lt;/div&gt;" style="verticalLabelPosition=bottom;html=1;verticalAlign=top;strokeWidth=1;align=center;outlineConnect=0;dashed=0;outlineConnect=0;shape=mxgraph.aws3d.ami2;aspect=fixed;fillColor=#FF9900;strokeColor=#ffffff;fontColor=#FFFFFF;fontStyle=1" parent="5jvU46u17jYDR4MZLt9F-1" vertex="1">
          <mxGeometry x="132.53999999999996" y="600" width="74" height="50" as="geometry" />
        </mxCell>
        <mxCell id="diWJd8AKhdj01ChAPHTm-0" style="edgeStyle=orthogonalEdgeStyle;rounded=0;orthogonalLoop=1;jettySize=auto;html=1;endArrow=none;endFill=0;curved=1;" parent="5jvU46u17jYDR4MZLt9F-1" source="bRjVQh3te2Wh9cIUkogD-6" target="bRjVQh3te2Wh9cIUkogD-14" edge="1">
          <mxGeometry relative="1" as="geometry" />
        </mxCell>
        <mxCell id="diWJd8AKhdj01ChAPHTm-10" style="edgeStyle=orthogonalEdgeStyle;curved=1;rounded=0;orthogonalLoop=1;jettySize=auto;html=1;endArrow=none;endFill=0;fontFamily=Roboto;fontSize=24;fontColor=#FFFFFF;dashed=1;" parent="5jvU46u17jYDR4MZLt9F-1" source="bRjVQh3te2Wh9cIUkogD-6" target="bRjVQh3te2Wh9cIUkogD-8" edge="1">
          <mxGeometry relative="1" as="geometry" />
        </mxCell>
        <mxCell id="bRjVQh3te2Wh9cIUkogD-6" value="&lt;div&gt;Transmission&lt;/div&gt;&lt;div&gt;torrent.chinour.fr&lt;br&gt;&lt;/div&gt;" style="verticalLabelPosition=bottom;html=1;verticalAlign=top;strokeWidth=1;align=center;outlineConnect=0;dashed=0;outlineConnect=0;shape=mxgraph.aws3d.ami2;aspect=fixed;fillColor=#FF9900;strokeColor=#ffffff;fontColor=#FFFFFF;fontStyle=1" parent="5jvU46u17jYDR4MZLt9F-1" vertex="1">
          <mxGeometry x="206.54000000000002" y="671.5099999999999" width="74" height="50" as="geometry" />
        </mxCell>
        <mxCell id="bRjVQh3te2Wh9cIUkogD-14" value="&lt;div&gt;Storage 2To&lt;/div&gt;&lt;div&gt;/mediastorage&lt;br&gt;&lt;/div&gt;" style="verticalLabelPosition=bottom;html=1;verticalAlign=top;strokeWidth=1;align=center;outlineConnect=0;dashed=0;outlineConnect=0;shape=mxgraph.aws3d.application;fillColor=#4286c5;strokeColor=#57A2D8;aspect=fixed;fontColor=#FFFFFF;fontStyle=1" parent="5jvU46u17jYDR4MZLt9F-1" vertex="1">
          <mxGeometry x="60.540000000000006" y="689.9999999999999" width="62" height="68.8" as="geometry" />
        </mxCell>
        <mxCell id="bRjVQh3te2Wh9cIUkogD-24" value="" style="verticalLabelPosition=bottom;html=1;verticalAlign=top;strokeWidth=1;align=center;outlineConnect=0;dashed=0;outlineConnect=0;shape=mxgraph.aws3d.spot;aspect=fixed;fillColor=#FFFFFF;" parent="5jvU46u17jYDR4MZLt9F-1" vertex="1">
          <mxGeometry x="-219.99999999999997" y="280" width="456.9" height="265.29" as="geometry" />
        </mxCell>
        <mxCell id="3_Wbqj_5gp6mR6WRHqKk-17" style="edgeStyle=orthogonalEdgeStyle;curved=1;rounded=0;orthogonalLoop=1;jettySize=auto;html=1;endArrow=none;endFill=0;fontFamily=Garamond;fontSize=22;fontColor=#000000;" parent="5jvU46u17jYDR4MZLt9F-1" source="bRjVQh3te2Wh9cIUkogD-5" target="bRjVQh3te2Wh9cIUkogD-15" edge="1">
          <mxGeometry relative="1" as="geometry" />
        </mxCell>
        <mxCell id="3_Wbqj_5gp6mR6WRHqKk-24" style="edgeStyle=orthogonalEdgeStyle;curved=1;rounded=0;orthogonalLoop=1;jettySize=auto;html=1;endArrow=none;endFill=0;fontFamily=Garamond;fontSize=22;fontColor=#000000;dashed=1;" parent="5jvU46u17jYDR4MZLt9F-1" source="bRjVQh3te2Wh9cIUkogD-5" target="bRjVQh3te2Wh9cIUkogD-8" edge="1">
          <mxGeometry relative="1" as="geometry" />
        </mxCell>
        <mxCell id="bRjVQh3te2Wh9cIUkogD-5" value="&lt;div&gt;Nextcloud&lt;/div&gt;&lt;div&gt;cloud.chinour.fr&lt;br&gt;&lt;/div&gt;" style="verticalLabelPosition=bottom;html=1;verticalAlign=top;strokeWidth=1;align=center;outlineConnect=0;dashed=0;outlineConnect=0;shape=mxgraph.aws3d.ami2;aspect=fixed;fillColor=#FF9900;strokeColor=#ffffff;fontColor=#FFFFFF;fontFamily=Roboto;fontStyle=1" parent="5jvU46u17jYDR4MZLt9F-1" vertex="1">
          <mxGeometry x="54.540000000000006" y="360.00000000000006" width="74" height="50" as="geometry" />
        </mxCell>
        <mxCell id="bRjVQh3te2Wh9cIUkogD-15" value="&lt;div&gt;Storage 500Go&lt;/div&gt;&lt;div&gt;/cloud&lt;br&gt;&lt;/div&gt;" style="verticalLabelPosition=bottom;html=1;verticalAlign=top;strokeWidth=1;align=center;outlineConnect=0;dashed=0;outlineConnect=0;shape=mxgraph.aws3d.application;fillColor=#4286c5;strokeColor=#57A2D8;aspect=fixed;fontColor=#FFFFFF;fontStyle=1" parent="5jvU46u17jYDR4MZLt9F-1" vertex="1">
          <mxGeometry x="-57.31" y="395.39000000000004" width="49.21" height="54.61" as="geometry" />
        </mxCell>
        <mxCell id="bRjVQh3te2Wh9cIUkogD-70" value="&lt;font style=&quot;font-size: 28px;&quot;&gt;Traefik&lt;/font&gt;" style="text;html=1;strokeColor=none;fillColor=none;align=center;verticalAlign=middle;whiteSpace=wrap;rounded=0;fontStyle=1;fontFamily=Roboto;FType=g;fontSize=28;" parent="5jvU46u17jYDR4MZLt9F-1" vertex="1">
          <mxGeometry x="170" y="260" width="171.39" height="30" as="geometry" />
        </mxCell>
        <mxCell id="bRjVQh3te2Wh9cIUkogD-25" value="" style="verticalLabelPosition=bottom;html=1;verticalAlign=top;strokeWidth=1;align=center;outlineConnect=0;dashed=0;outlineConnect=0;shape=mxgraph.aws3d.spot;aspect=fixed;fillColor=#FFFFFF;" parent="5jvU46u17jYDR4MZLt9F-1" vertex="1">
          <mxGeometry x="414" y="490" width="528.86" height="307.09" as="geometry" />
        </mxCell>
        <mxCell id="diWJd8AKhdj01ChAPHTm-13" style="edgeStyle=orthogonalEdgeStyle;curved=1;rounded=0;orthogonalLoop=1;jettySize=auto;html=1;dashed=1;endArrow=none;endFill=0;fontFamily=Roboto;fontSize=28;fontColor=#FFFFFF;" parent="5jvU46u17jYDR4MZLt9F-1" source="bRjVQh3te2Wh9cIUkogD-42" target="bRjVQh3te2Wh9cIUkogD-8" edge="1">
          <mxGeometry relative="1" as="geometry" />
        </mxCell>
        <mxCell id="bRjVQh3te2Wh9cIUkogD-42" value="&lt;div&gt;Ellias&lt;/div&gt;&lt;div&gt;alias.chinour.fr&lt;br&gt;&lt;/div&gt;" style="verticalLabelPosition=bottom;html=1;verticalAlign=top;strokeWidth=1;align=center;outlineConnect=0;dashed=0;outlineConnect=0;shape=mxgraph.aws3d.ami2;aspect=fixed;fillColor=#FF9900;strokeColor=#ffffff;fontStyle=1;fontColor=#FFFFFF;" parent="5jvU46u17jYDR4MZLt9F-1" vertex="1">
          <mxGeometry x="641.43" y="680.22" width="74" height="50" as="geometry" />
        </mxCell>
        <mxCell id="diWJd8AKhdj01ChAPHTm-14" style="edgeStyle=orthogonalEdgeStyle;curved=1;rounded=0;orthogonalLoop=1;jettySize=auto;html=1;dashed=1;endArrow=none;endFill=0;fontFamily=Roboto;fontSize=28;fontColor=#FFFFFF;" parent="5jvU46u17jYDR4MZLt9F-1" source="bRjVQh3te2Wh9cIUkogD-43" target="bRjVQh3te2Wh9cIUkogD-8" edge="1">
          <mxGeometry relative="1" as="geometry" />
        </mxCell>
        <mxCell id="bRjVQh3te2Wh9cIUkogD-43" value="&lt;div&gt;Sandbox&lt;/div&gt;&lt;div&gt;chinour.dev/[projet]&lt;br&gt;&lt;/div&gt;" style="verticalLabelPosition=bottom;html=1;verticalAlign=top;strokeWidth=1;align=center;outlineConnect=0;dashed=0;outlineConnect=0;shape=mxgraph.aws3d.ami2;aspect=fixed;fillColor=#FF9900;strokeColor=#ffffff;fontStyle=1;fontColor=#FFFFFF;" parent="5jvU46u17jYDR4MZLt9F-1" vertex="1">
          <mxGeometry x="551.4300000000001" y="587.09" width="74" height="50" as="geometry" />
        </mxCell>
        <mxCell id="diWJd8AKhdj01ChAPHTm-18" value="" style="group" parent="5jvU46u17jYDR4MZLt9F-1" vertex="1" connectable="0">
          <mxGeometry x="480" y="260.90999999999997" width="378.3299999999999" height="168.63" as="geometry" />
        </mxCell>
        <mxCell id="bRjVQh3te2Wh9cIUkogD-84" value="&lt;div&gt;Chaque application tourne dans son propre environnement dockerisÃ©&lt;/div&gt;&lt;div&gt;&lt;br&gt;&lt;/div&gt;" style="rounded=1;strokeWidth=2;fillWeight=4;hachureGap=8;hachureAngle=45;sketch=1;fontSize=16;fontStyle=1;whiteSpace=wrap;html=1;fontFamily=Roboto;labelBackgroundColor=none;fillColor=#E6E6E6;verticalAlign=bottom;" parent="diWJd8AKhdj01ChAPHTm-18" vertex="1">
          <mxGeometry width="378.33" height="168.63" as="geometry" />
        </mxCell>
        <mxCell id="diWJd8AKhdj01ChAPHTm-17" value="" style="aspect=fixed;html=1;points=[];align=center;image;fontSize=12;image=img/lib/mscae/Docker.svg;labelBackgroundColor=none;fillColor=#E6E6E6;" parent="diWJd8AKhdj01ChAPHTm-18" vertex="1">
          <mxGeometry x="137.33000000000004" y="7.490000000000009" width="103.67" height="85.01" as="geometry" />
        </mxCell>
        <mxCell id="diWJd8AKhdj01ChAPHTm-22" value="And more..." style="verticalLabelPosition=bottom;html=1;verticalAlign=top;strokeWidth=1;align=center;outlineConnect=0;dashed=0;outlineConnect=0;shape=mxgraph.aws3d.ami2;aspect=fixed;fillColor=#FF9900;strokeColor=#ffffff;fontStyle=1;fontColor=#FFFFFF;" parent="5jvU46u17jYDR4MZLt9F-1" vertex="1">
          <mxGeometry x="694" y="587.09" width="74" height="50" as="geometry" />
        </mxCell>
        <mxCell id="3_Wbqj_5gp6mR6WRHqKk-11" value="" style="group" parent="5jvU46u17jYDR4MZLt9F-1" vertex="1" connectable="0">
          <mxGeometry x="-57.306133422057954" y="549.7847459621556" width="205.91226684411572" height="130.43050807568875" as="geometry" />
        </mxCell>
        <mxCell id="bRjVQh3te2Wh9cIUkogD-72" value="Media Center" style="text;html=1;strokeColor=none;fillColor=none;align=center;verticalAlign=middle;whiteSpace=wrap;rounded=0;fontStyle=1;fontFamily=Roboto;FType=g;fontSize=24;fontColor=#FFFFFF;rotation=-30;" parent="3_Wbqj_5gp6mR6WRHqKk-11" vertex="1">
          <mxGeometry x="-10.153866577942154" y="55.215254037844375" width="226.22" height="20" as="geometry" />
        </mxCell>
        <mxCell id="3_Wbqj_5gp6mR6WRHqKk-4" value="" style="aspect=fixed;pointerEvents=1;shadow=0;dashed=0;html=1;strokeColor=none;labelPosition=center;verticalLabelPosition=bottom;verticalAlign=top;align=center;shape=mxgraph.mscae.general.video;labelBackgroundColor=none;fontFamily=Garamond;fontSize=22;fontColor=#000000;rotation=-30;fillColor=#FFFFFF;" parent="3_Wbqj_5gp6mR6WRHqKk-11" vertex="1">
          <mxGeometry x="14.756133422057957" y="101.30525403784429" width="19.4" height="19.8" as="geometry" />
        </mxCell>
        <mxCell id="3_Wbqj_5gp6mR6WRHqKk-12" value="" style="group" parent="5jvU46u17jYDR4MZLt9F-1" vertex="1" connectable="0">
          <mxGeometry x="-172.85613342205795" y="280.00474596215565" width="205.91226684411572" height="130.43050807568875" as="geometry" />
        </mxCell>
        <mxCell id="3_Wbqj_5gp6mR6WRHqKk-16" value="" style="group" parent="3_Wbqj_5gp6mR6WRHqKk-12" vertex="1" connectable="0">
          <mxGeometry x="-1.4210854715202004e-14" width="205.91226684411572" height="130.43050807568875" as="geometry" />
        </mxCell>
        <mxCell id="3_Wbqj_5gp6mR6WRHqKk-13" value="Cloud" style="text;html=1;strokeColor=none;fillColor=none;align=center;verticalAlign=middle;whiteSpace=wrap;rounded=0;fontStyle=1;fontFamily=Roboto;FType=g;fontSize=24;fontColor=#FFFFFF;rotation=-30;" parent="3_Wbqj_5gp6mR6WRHqKk-16" vertex="1">
          <mxGeometry x="-10.15386657794214" y="55.215254037844375" width="226.22" height="20" as="geometry" />
        </mxCell>
        <mxCell id="3_Wbqj_5gp6mR6WRHqKk-15" value="" style="aspect=fixed;pointerEvents=1;shadow=0;dashed=0;html=1;strokeColor=none;labelPosition=center;verticalLabelPosition=bottom;verticalAlign=top;align=center;shape=mxgraph.azure.cloud;labelBackgroundColor=none;fontFamily=Garamond;fontSize=22;fontColor=#000000;opacity=90;rotation=-30;fillColor=#FFFFFF;" parent="3_Wbqj_5gp6mR6WRHqKk-16" vertex="1">
          <mxGeometry x="45.99613342205798" y="80.58525403784432" width="30" height="19.2" as="geometry" />
        </mxCell>
        <mxCell id="3_Wbqj_5gp6mR6WRHqKk-21" value="" style="group" parent="5jvU46u17jYDR4MZLt9F-1" vertex="1" connectable="0">
          <mxGeometry x="686.4138665779421" y="506.65474596215563" width="205.91226684411572" height="130.43050807568875" as="geometry" />
        </mxCell>
        <mxCell id="diWJd8AKhdj01ChAPHTm-16" value="Applications" style="text;html=1;strokeColor=none;fillColor=none;align=center;verticalAlign=middle;whiteSpace=wrap;rounded=0;fontStyle=1;fontFamily=Roboto;FType=g;fontSize=24;fontColor=#FFFFFF;rotation=30;" parent="3_Wbqj_5gp6mR6WRHqKk-21" vertex="1">
          <mxGeometry x="-10.153866577942154" y="55.215254037844375" width="226.22" height="20" as="geometry" />
        </mxCell>
        <mxCell id="3_Wbqj_5gp6mR6WRHqKk-20" value="" style="aspect=fixed;pointerEvents=1;shadow=0;dashed=0;html=1;strokeColor=none;labelPosition=center;verticalLabelPosition=bottom;verticalAlign=top;align=center;shape=mxgraph.mscae.enterprise.app_generic;labelBackgroundColor=none;fontFamily=Garamond;fontSize=22;fontColor=#000000;opacity=90;rotation=30;fillColor=#FFFFFF;" parent="3_Wbqj_5gp6mR6WRHqKk-21" vertex="1">
          <mxGeometry x="9" y="8" width="30" height="23.4" as="geometry" />
        </mxCell>
        <mxCell id="3_Wbqj_5gp6mR6WRHqKk-26" value=":80" style="text;html=1;align=center;verticalAlign=middle;resizable=0;points=[];autosize=1;fontSize=22;fontFamily=Garamond;fontColor=#000000;labelBackgroundColor=#ffffff;" parent="5jvU46u17jYDR4MZLt9F-1" vertex="1">
          <mxGeometry x="327.17" y="205.98" width="50" height="30" as="geometry" />
        </mxCell>
        <mxCell id="3_Wbqj_5gp6mR6WRHqKk-27" value="" style="pointerEvents=1;shadow=0;dashed=0;html=1;strokeColor=none;fillColor=#505050;labelPosition=center;verticalLabelPosition=bottom;verticalAlign=top;outlineConnect=0;align=center;shape=mxgraph.office.concepts.globe_internet;labelBackgroundColor=#ffffff;fontFamily=Garamond;fontSize=22;fontColor=#000000;opacity=90;" parent="5jvU46u17jYDR4MZLt9F-1" vertex="1">
          <mxGeometry x="309.95" y="70" width="84.43" height="90" as="geometry" />
        </mxCell>
      </root>
    </mxGraphModel>
  </diagram>
  <diagram id="29A75E-vHud8_DeC_cHA" name="Storage">
    <mxGraphModel dx="1886" dy="874" grid="1" gridSize="10" guides="1" tooltips="1" connect="1" arrows="1" fold="1" page="1" pageScale="1" pageWidth="827" pageHeight="1169" math="0" shadow="0">
      <root>
        <mxCell id="fNHqkD8roJVdE6ToBNQt-0" />
        <mxCell id="fNHqkD8roJVdE6ToBNQt-1" parent="fNHqkD8roJVdE6ToBNQt-0" />
        <mxCell id="fNHqkD8roJVdE6ToBNQt-9" style="edgeStyle=orthogonalEdgeStyle;curved=1;rounded=0;orthogonalLoop=1;jettySize=auto;html=1;dashed=1;endArrow=none;endFill=0;fontFamily=Roboto;fontSize=23;fontColor=#000000;" parent="fNHqkD8roJVdE6ToBNQt-1" source="fNHqkD8roJVdE6ToBNQt-2" target="fNHqkD8roJVdE6ToBNQt-5" edge="1">
          <mxGeometry relative="1" as="geometry" />
        </mxCell>
        <mxCell id="fNHqkD8roJVdE6ToBNQt-11" style="edgeStyle=orthogonalEdgeStyle;curved=1;rounded=0;orthogonalLoop=1;jettySize=auto;html=1;dashed=1;endArrow=none;endFill=0;fontFamily=Roboto;fontSize=23;fontColor=#000000;" parent="fNHqkD8roJVdE6ToBNQt-1" source="fNHqkD8roJVdE6ToBNQt-2" target="fNHqkD8roJVdE6ToBNQt-7" edge="1">
          <mxGeometry relative="1" as="geometry" />
        </mxCell>
        <mxCell id="fNHqkD8roJVdE6ToBNQt-2" value="&lt;div style=&quot;font-size: 20px;&quot;&gt;Internal storage&lt;/div&gt;&lt;div style=&quot;font-size: 20px;&quot;&gt;32Go&lt;br style=&quot;font-size: 20px;&quot;&gt;&lt;/div&gt;" style="verticalLabelPosition=bottom;html=1;verticalAlign=top;strokeWidth=1;align=center;outlineConnect=0;dashed=0;outlineConnect=0;shape=mxgraph.aws3d.application;fillColor=#4286c5;strokeColor=#57A2D8;aspect=fixed;shadow=1;labelBackgroundColor=#ffffff;fontFamily=Roboto;fontSize=20;fontColor=#000000;opacity=90;" parent="fNHqkD8roJVdE6ToBNQt-1" vertex="1">
          <mxGeometry x="160" y="250" width="62" height="68.8" as="geometry" />
        </mxCell>
        <mxCell id="fNHqkD8roJVdE6ToBNQt-8" style="edgeStyle=orthogonalEdgeStyle;curved=1;rounded=0;orthogonalLoop=1;jettySize=auto;html=1;dashed=1;endArrow=none;endFill=0;fontFamily=Roboto;fontSize=23;fontColor=#000000;" parent="fNHqkD8roJVdE6ToBNQt-1" source="fNHqkD8roJVdE6ToBNQt-4" target="fNHqkD8roJVdE6ToBNQt-2" edge="1">
          <mxGeometry relative="1" as="geometry" />
        </mxCell>
        <mxCell id="fNHqkD8roJVdE6ToBNQt-17" style="edgeStyle=orthogonalEdgeStyle;curved=1;rounded=0;orthogonalLoop=1;jettySize=auto;html=1;dashed=1;endArrow=none;endFill=0;fontFamily=Roboto;fontSize=23;fontColor=#000000;" parent="fNHqkD8roJVdE6ToBNQt-1" source="fNHqkD8roJVdE6ToBNQt-4" target="fNHqkD8roJVdE6ToBNQt-16" edge="1">
          <mxGeometry relative="1" as="geometry" />
        </mxCell>
        <mxCell id="ZnOtC6dD8n6xgyg9IzbI-5" style="edgeStyle=orthogonalEdgeStyle;curved=1;rounded=0;orthogonalLoop=1;jettySize=auto;html=1;dashed=1;endArrow=none;endFill=0;fontFamily=Roboto;fontSize=20;fontColor=#000000;" parent="fNHqkD8roJVdE6ToBNQt-1" source="fNHqkD8roJVdE6ToBNQt-4" target="ZnOtC6dD8n6xgyg9IzbI-2" edge="1">
          <mxGeometry relative="1" as="geometry" />
        </mxCell>
        <mxCell id="fNHqkD8roJVdE6ToBNQt-4" value="" style="verticalLabelPosition=bottom;html=1;verticalAlign=top;strokeWidth=1;align=center;outlineConnect=0;dashed=0;outlineConnect=0;shape=mxgraph.aws3d.ebs2;fillColor=#ECECEC;strokeColor=#5E5E5E;aspect=fixed;shadow=1;labelBackgroundColor=#ffffff;fontFamily=Roboto;fontSize=23;fontColor=#000000;opacity=90;" parent="fNHqkD8roJVdE6ToBNQt-1" vertex="1">
          <mxGeometry x="390" y="90" width="168.67" height="110" as="geometry" />
        </mxCell>
        <mxCell id="fNHqkD8roJVdE6ToBNQt-5" value="&lt;div style=&quot;font-size: 13px;&quot;&gt;/&lt;/div&gt;&lt;div style=&quot;font-size: 13px;&quot;&gt;22Go&lt;br style=&quot;font-size: 13px;&quot;&gt;&lt;/div&gt;" style="verticalLabelPosition=bottom;html=1;verticalAlign=top;strokeWidth=1;align=center;outlineConnect=0;dashed=0;outlineConnect=0;shape=mxgraph.aws3d.application2;fillColor=#86E83A;strokeColor=#B0F373;aspect=fixed;shadow=1;labelBackgroundColor=#ffffff;fontFamily=Roboto;fontSize=13;fontColor=#000000;opacity=90;" parent="fNHqkD8roJVdE6ToBNQt-1" vertex="1">
          <mxGeometry x="60" y="440" width="62" height="53" as="geometry" />
        </mxCell>
        <mxCell id="fNHqkD8roJVdE6ToBNQt-7" value="&lt;div style=&quot;font-size: 13px;&quot;&gt;/applications&lt;/div&gt;&lt;div style=&quot;font-size: 13px;&quot;&gt;10Go&lt;br style=&quot;font-size: 13px;&quot;&gt;&lt;/div&gt;" style="verticalLabelPosition=bottom;html=1;verticalAlign=top;strokeWidth=1;align=center;outlineConnect=0;dashed=0;outlineConnect=0;shape=mxgraph.aws3d.application2;fillColor=#86E83A;strokeColor=#B0F373;aspect=fixed;shadow=1;labelBackgroundColor=#ffffff;fontFamily=Roboto;fontSize=13;fontColor=#000000;opacity=90;" parent="fNHqkD8roJVdE6ToBNQt-1" vertex="1">
          <mxGeometry x="260" y="440" width="62" height="53" as="geometry" />
        </mxCell>
        <mxCell id="fNHqkD8roJVdE6ToBNQt-13" style="edgeStyle=orthogonalEdgeStyle;curved=1;rounded=0;orthogonalLoop=1;jettySize=auto;html=1;dashed=1;endArrow=none;endFill=0;fontFamily=Roboto;fontSize=23;fontColor=#000000;" parent="fNHqkD8roJVdE6ToBNQt-1" source="fNHqkD8roJVdE6ToBNQt-12" target="fNHqkD8roJVdE6ToBNQt-4" edge="1">
          <mxGeometry relative="1" as="geometry" />
        </mxCell>
        <mxCell id="fNHqkD8roJVdE6ToBNQt-15" style="edgeStyle=orthogonalEdgeStyle;curved=1;rounded=0;orthogonalLoop=1;jettySize=auto;html=1;dashed=1;endArrow=none;endFill=0;fontFamily=Roboto;fontSize=23;fontColor=#000000;" parent="fNHqkD8roJVdE6ToBNQt-1" source="fNHqkD8roJVdE6ToBNQt-12" target="fNHqkD8roJVdE6ToBNQt-14" edge="1">
          <mxGeometry relative="1" as="geometry" />
        </mxCell>
        <mxCell id="fNHqkD8roJVdE6ToBNQt-12" value="&lt;div style=&quot;font-size: 20px&quot;&gt;Media Storage&lt;/div&gt;2To" style="verticalLabelPosition=bottom;html=1;verticalAlign=top;strokeWidth=1;align=center;outlineConnect=0;dashed=0;outlineConnect=0;shape=mxgraph.aws3d.application;fillColor=#4286c5;strokeColor=#57A2D8;aspect=fixed;shadow=1;labelBackgroundColor=#ffffff;fontFamily=Roboto;fontSize=20;fontColor=#000000;opacity=90;" parent="fNHqkD8roJVdE6ToBNQt-1" vertex="1">
          <mxGeometry x="443.34" y="250" width="62" height="68.8" as="geometry" />
        </mxCell>
        <mxCell id="fNHqkD8roJVdE6ToBNQt-14" value="&lt;div style=&quot;font-size: 13px;&quot;&gt;/mediastorage&lt;/div&gt;&lt;div style=&quot;font-size: 13px;&quot;&gt;2To&lt;br style=&quot;font-size: 13px;&quot;&gt;&lt;/div&gt;" style="verticalLabelPosition=bottom;html=1;verticalAlign=top;strokeWidth=1;align=center;outlineConnect=0;dashed=0;outlineConnect=0;shape=mxgraph.aws3d.application2;fillColor=#86E83A;strokeColor=#B0F373;aspect=fixed;shadow=1;labelBackgroundColor=#ffffff;fontFamily=Roboto;fontSize=13;fontColor=#000000;opacity=90;" parent="fNHqkD8roJVdE6ToBNQt-1" vertex="1">
          <mxGeometry x="443.34" y="440" width="62" height="53" as="geometry" />
        </mxCell>
        <mxCell id="ZnOtC6dD8n6xgyg9IzbI-1" style="edgeStyle=orthogonalEdgeStyle;curved=1;rounded=0;orthogonalLoop=1;jettySize=auto;html=1;dashed=1;endArrow=none;endFill=0;fontFamily=Roboto;fontSize=13;fontColor=#000000;" parent="fNHqkD8roJVdE6ToBNQt-1" source="fNHqkD8roJVdE6ToBNQt-16" target="ZnOtC6dD8n6xgyg9IzbI-0" edge="1">
          <mxGeometry relative="1" as="geometry" />
        </mxCell>
        <mxCell id="in0z_yOwO505gRJk_PaX-2" value="" style="edgeStyle=orthogonalEdgeStyle;curved=1;rounded=0;orthogonalLoop=1;jettySize=auto;html=1;dashed=1;endArrow=none;endFill=0;fontFamily=Roboto;fontSize=12;fontColor=#000000;" parent="fNHqkD8roJVdE6ToBNQt-1" edge="1">
          <mxGeometry x="0.2041" relative="1" as="geometry">
            <mxPoint x="731" y="284.4000000000001" as="sourcePoint" />
            <mxPoint x="829" y="284.4000000000001" as="targetPoint" />
            <Array as="points">
              <mxPoint x="790" y="284" />
              <mxPoint x="790" y="284" />
            </Array>
            <mxPoint as="offset" />
          </mxGeometry>
        </mxCell>
        <mxCell id="fNHqkD8roJVdE6ToBNQt-16" value="&lt;div style=&quot;font-size: 20px;&quot;&gt;Cloud Storage&lt;/div&gt;&lt;div style=&quot;font-size: 20px;&quot;&gt;500Go&lt;br style=&quot;font-size: 20px;&quot;&gt;&lt;/div&gt;" style="verticalLabelPosition=bottom;html=1;verticalAlign=top;strokeWidth=1;align=center;outlineConnect=0;dashed=0;outlineConnect=0;shape=mxgraph.aws3d.application;fillColor=#4286c5;strokeColor=#57A2D8;aspect=fixed;shadow=1;labelBackgroundColor=#ffffff;fontFamily=Roboto;fontSize=20;fontColor=#000000;opacity=90;" parent="fNHqkD8roJVdE6ToBNQt-1" vertex="1">
          <mxGeometry x="670" y="250" width="62" height="68.8" as="geometry" />
        </mxCell>
        <mxCell id="ZnOtC6dD8n6xgyg9IzbI-0" value="&lt;div style=&quot;font-size: 13px&quot;&gt;/cloud&lt;/div&gt;&lt;div style=&quot;font-size: 13px&quot;&gt;500Go&lt;br style=&quot;font-size: 13px&quot;&gt;&lt;/div&gt;" style="verticalLabelPosition=bottom;html=1;verticalAlign=top;strokeWidth=1;align=center;outlineConnect=0;dashed=0;outlineConnect=0;shape=mxgraph.aws3d.application2;fillColor=#86E83A;strokeColor=#B0F373;aspect=fixed;shadow=1;labelBackgroundColor=#ffffff;fontFamily=Roboto;fontSize=13;fontColor=#000000;opacity=90;" parent="fNHqkD8roJVdE6ToBNQt-1" vertex="1">
          <mxGeometry x="670" y="440" width="62" height="53" as="geometry" />
        </mxCell>
        <mxCell id="in0z_yOwO505gRJk_PaX-1" style="edgeStyle=orthogonalEdgeStyle;curved=1;rounded=0;orthogonalLoop=1;jettySize=auto;html=1;dashed=1;endArrow=none;endFill=0;fontFamily=Roboto;fontSize=24;fontColor=#000000;" parent="fNHqkD8roJVdE6ToBNQt-1" source="ZnOtC6dD8n6xgyg9IzbI-2" target="in0z_yOwO505gRJk_PaX-0" edge="1">
          <mxGeometry relative="1" as="geometry" />
        </mxCell>
        <mxCell id="ZnOtC6dD8n6xgyg9IzbI-2" value="&lt;div style=&quot;font-size: 20px;&quot;&gt;Cloud Replica&lt;/div&gt;&lt;div style=&quot;font-size: 20px;&quot;&gt;500Go&lt;br style=&quot;font-size: 20px;&quot;&gt;&lt;/div&gt;" style="verticalLabelPosition=bottom;html=1;verticalAlign=top;strokeWidth=1;align=center;outlineConnect=0;dashed=0;outlineConnect=0;shape=mxgraph.aws3d.application;fillColor=#4286c5;strokeColor=#57A2D8;aspect=fixed;shadow=1;labelBackgroundColor=#ffffff;fontFamily=Roboto;fontSize=20;fontColor=#000000;opacity=90;" parent="fNHqkD8roJVdE6ToBNQt-1" vertex="1">
          <mxGeometry x="830" y="250" width="62" height="68.8" as="geometry" />
        </mxCell>
        <mxCell id="ZnOtC6dD8n6xgyg9IzbI-6" value="Raspberry Pi 4b" style="text;html=1;strokeColor=none;fillColor=none;align=center;verticalAlign=middle;whiteSpace=wrap;rounded=0;shadow=1;labelBackgroundColor=#ffffff;fontFamily=Roboto;fontSize=24;fontColor=#000000;opacity=90;fontStyle=1" parent="fNHqkD8roJVdE6ToBNQt-1" vertex="1">
          <mxGeometry x="510" y="90" width="196.66" height="20" as="geometry" />
        </mxCell>
        <mxCell id="in0z_yOwO505gRJk_PaX-0" value="&lt;div style=&quot;font-size: 13px&quot;&gt;/backup&lt;/div&gt;&lt;div style=&quot;font-size: 13px&quot;&gt;500Go&lt;br style=&quot;font-size: 13px&quot;&gt;&lt;/div&gt;" style="verticalLabelPosition=bottom;html=1;verticalAlign=top;strokeWidth=1;align=center;outlineConnect=0;dashed=0;outlineConnect=0;shape=mxgraph.aws3d.application2;fillColor=#86E83A;strokeColor=#B0F373;aspect=fixed;shadow=1;labelBackgroundColor=#ffffff;fontFamily=Roboto;fontSize=13;fontColor=#000000;opacity=90;" parent="fNHqkD8roJVdE6ToBNQt-1" vertex="1">
          <mxGeometry x="830" y="440" width="62" height="53" as="geometry" />
        </mxCell>
        <mxCell id="in0z_yOwO505gRJk_PaX-3" value="RSync" style="pointerEvents=1;shadow=0;dashed=0;html=1;strokeColor=none;labelPosition=center;verticalLabelPosition=bottom;verticalAlign=top;align=center;fillColor=#505050;shape=mxgraph.mscae.intune.update;labelBackgroundColor=#ffffff;fontFamily=Roboto;fontSize=12;fontColor=#000000;opacity=90;" parent="fNHqkD8roJVdE6ToBNQt-1" vertex="1">
          <mxGeometry x="767" y="250" width="30" height="30" as="geometry" />
        </mxCell>
      </root>
    </mxGraphModel>
  </diagram>
</mxfile>
